<svg id="alien3" enable-background="new 0 0 300 300" height="512" viewBox="0 0 300 300" width="512" xmlns="http://www.w3.org/2000/svg"><path d="m225.377 23.463c-9.383-3.283-19.656 1.672-22.938 11.035-1.594 4.539-1.32 9.424.766 13.756 1.18 2.456 2.905 4.515 4.967 6.173l-7.205 20.571c-13.878-8.423-30.857-13.447-49.242-13.447-19.386 0-37.214 5.581-51.48 14.855l-8.175-22.097c5.674-4.748 8.105-12.682 5.4-20.008-.004 0-.004 0-.004-.002-3.441-9.309-13.824-14.072-23.125-10.637-4.508 1.668-8.098 4.992-10.109 9.359-2.008 4.369-2.199 9.258-.531 13.766 1.668 4.51 4.992 8.1 9.359 10.109 2.398 1.104 4.953 1.658 7.516 1.658 1.448 0 2.891-.244 4.317-.599l8.542 23.094c.025.069.076.12.104.187-16.119 12.934-26.225 31.122-26.225 51.291 0 33.816 27.952 95.329 64.935 112.454-.029.194-.115.367-.115.569v28c0 2.209 1.789 4 4 4s4-1.791 4-4v-25.65c3.795 1.05 7.661 1.651 11.59 1.651 4.211 0 8.354-.659 12.41-1.859v25.859c0 2.209 1.789 4 4 4s4-1.791 4-4v-28.99c36.52-17.718 64-78.502 64-112.034 0-21.024-10.99-39.884-28.32-52.892l7.599-21.695c1.332.305 2.668.513 3.994.513 7.434 0 14.41-4.646 17.004-12.049 0-.002 0-.002 0-.002 3.282-9.369-1.671-19.658-11.034-22.939zm-148.973 26.166c-2.426-1.115-4.273-3.109-5.199-5.617-.926-2.504-.82-5.221.297-7.646 1.113-2.426 3.109-4.273 5.613-5.199 1.141-.422 2.309-.623 3.461-.623 4.066 0 7.895 2.5 9.387 6.531 1.914 5.172-.738 10.938-5.91 12.85-2.508.923-5.227.817-7.649-.296zm151.731 82.898c0 35.898-35.371 109.023-76.41 109.023s-76.41-73.125-76.41-109.023c0-34.725 34.277-62.977 76.41-62.977s76.41 28.253 76.41 62.977zm.73-88.769c-1.828 5.205-7.562 7.955-12.746 6.131-2.523-.883-4.547-2.695-5.707-5.102-1.156-2.408-1.309-5.121-.426-7.641 1.445-4.115 5.32-6.695 9.449-6.695 1.094 0 2.207.18 3.297.562 5.203 1.823 7.953 7.54 6.133 12.745z"/><circle cx="174.135" cy="103.551" r="6"/><circle cx="196.135" cy="105.551" r="4"/><circle cx="184.135" cy="89.551" r="4"/><path d="m167.904 163.666c2.211 0 4-1.791 4-4 0-6.744 5.488-12.23 12.23-12.23s12.23 5.486 12.23 12.23c0 2.209 1.789 4 4 4s4-1.791 4-4c0-11.154-9.074-20.23-20.23-20.23s-20.23 9.076-20.23 20.23c0 2.209 1.789 4 4 4z"/><path d="m132.365 159.666c0 2.209 1.789 4 4 4s4-1.791 4-4c0-11.154-9.074-20.23-20.23-20.23s-20.23 9.076-20.23 20.23c0 2.209 1.789 4 4 4s4-1.791 4-4c0-6.744 5.488-12.23 12.23-12.23s12.23 5.486 12.23 12.23z"/><path d="m148.135 193.551v20c0 2.209 1.789 4 4 4s4-1.791 4-4v-20c0-2.209-1.789-4-4-4s-4 1.791-4 4z"/><path d="m136.115 189.61-11.844 16.115c-1.309 1.781-.926 4.283.855 5.592.711.525 1.543.777 2.363.777 1.23 0 2.441-.564 3.227-1.631l11.844-16.115c1.309-1.781.926-4.283-.855-5.592-1.777-1.314-4.281-.924-5.59.854z"/><path d="m173.553 210.463c.785 1.066 1.996 1.631 3.227 1.631.82 0 1.652-.252 2.363-.777 1.781-1.309 2.164-3.811.855-5.592l-11.844-16.115c-1.309-1.777-3.812-2.17-5.59-.854-1.781 1.309-2.164 3.811-.855 5.592z"/></svg>